{
    "asset" : {
        "generator" : "Khronos glTF Blender I/O v1.2.75",
        "version" : "2.0"
    },
    "scene" : 0,
    "scenes" : [
        {
            "name" : "Scene",
            "nodes" : [
                28
            ]
        }
    ],
    "nodes" : [
        {
            "name" : "TopClaw.L",
            "rotation" : [
                0.22047927975654602,
                -0.0018322261748835444,
                0.20867517590522766,
                0.9528065919876099
            ],
            "scale" : [
                1,
                1,
                0.9999999403953552
            ],
            "translation" : [
                7.450580596923828e-09,
                0.08345461636781693,
                -4.6566128730773926e-09
            ]
        },
        {
            "name" : "BottomClaw.L",
            "rotation" : [
                -0.13157567381858826,
                -0.012673581019043922,
                -0.05201977491378784,
                0.9898591637611389
            ],
            "scale" : [
                0.9999999403953552,
                0.9999999403953552,
                1
            ],
            "translation" : [
                7.450580596923828e-09,
                0.08345461636781693,
                -4.6566128730773926e-09
            ]
        },
        {
            "children" : [
                0,
                1
            ],
            "name" : "LowerArm.L",
            "rotation" : [
                0.5541694164276123,
                0.1588532030582428,
                0.23657043278217316,
                0.7821102142333984
            ],
            "scale" : [
                1.0000001192092896,
                1.0000001192092896,
                1.0000001192092896
            ],
            "translation" : [
                -1.0011717677116394e-08,
                0.1859249472618103,
                -6.51925802230835e-09
            ]
        },
        {
            "children" : [
                2
            ],
            "name" : "UpperArm.L",
            "rotation" : [
                -0.311271071434021,
                -0.5435013175010681,
                -0.6211499571800232,
                0.471051424741745
            ],
            "scale" : [
                1,
                1,
                0.9999999403953552
            ],
            "translation" : [
                0.19870340824127197,
                0.3017355501651764,
                -0.0003770884359255433
            ]
        },
        {
            "name" : "FrontLeg3.L",
            "rotation" : [
                -0.1680358648300171,
                0.0018759582890197635,
                -0.8280245661735535,
                0.5349166989326477
            ],
            "scale" : [
                1.0000001192092896,
                1,
                1.0000001192092896
            ],
            "translation" : [
                -4.7497451305389404e-08,
                0.1565999984741211,
                5.587935447692871e-09
            ]
        },
        {
            "children" : [
                4
            ],
            "name" : "FrontKeg2.L",
            "rotation" : [
                0.1522410362958908,
                -0.0022598267532885075,
                0.6718612909317017,
                0.7248585820198059
            ],
            "scale" : [
                1.0000001192092896,
                1.0000001192092896,
                1
            ],
            "translation" : [
                1.862645149230957e-08,
                0.09627891331911087,
                1.0710209608078003e-08
            ]
        },
        {
            "children" : [
                5
            ],
            "name" : "FrontLeg1.L",
            "rotation" : [
                -0.35283297300338745,
                -0.6706903576850891,
                -0.620338499546051,
                0.2021474838256836
            ],
            "scale" : [
                0.9999999403953552,
                1.0000001192092896,
                0.9999999403953552
            ],
            "translation" : [
                0.22064171731472015,
                0.21649840474128723,
                -0.010625195689499378
            ]
        },
        {
            "name" : "MidLeg3.L",
            "rotation" : [
                -0.4063865840435028,
                0.003649652935564518,
                -0.7368693947792053,
                0.5402407646179199
            ],
            "scale" : [
                0.9999998807907104,
                0.9999998807907104,
                1
            ],
            "translation" : [
                0,
                0.15863165259361267,
                2.0489096641540527e-08
            ]
        },
        {
            "children" : [
                7
            ],
            "name" : "MidLeg2.L",
            "rotation" : [
                0.3488868176937103,
                -0.0030375493224710226,
                0.5879485011100769,
                0.7297844886779785
            ],
            "scale" : [
                1.0000001192092896,
                1.000000238418579,
                1.0000001192092896
            ],
            "translation" : [
                7.450580596923828e-09,
                0.09409017860889435,
                6.51925802230835e-09
            ]
        },
        {
            "children" : [
                8
            ],
            "name" : "MidLeg1.L",
            "rotation" : [
                -0.5404059290885925,
                -0.6215288043022156,
                -0.5670647621154785,
                0.010048028081655502
            ],
            "scale" : [
                0.9999998807907104,
                1,
                1
            ],
            "translation" : [
                0.21246016025543213,
                0.14641648530960083,
                -0.00980471819639206
            ]
        },
        {
            "name" : "BackLeg3.L",
            "rotation" : [
                -0.5858533978462219,
                0.013364947400987148,
                -0.6072753071784973,
                0.5364829301834106
            ],
            "scale" : [
                1.0000001192092896,
                1.0000001192092896,
                1
            ],
            "translation" : [
                3.725290298461914e-09,
                0.15458931028842926,
                5.587935447692871e-09
            ]
        },
        {
            "children" : [
                10
            ],
            "name" : "BackLeg2.L",
            "rotation" : [
                0.4953029751777649,
                0.004598843399435282,
                0.4712609350681305,
                0.7297719120979309
            ],
            "scale" : [
                1,
                0.9999998807907104,
                1
            ],
            "translation" : [
                -5.587935447692871e-09,
                0.09642533212900162,
                0
            ]
        },
        {
            "children" : [
                11
            ],
            "name" : "BackLeg1.L",
            "rotation" : [
                0.7177061438560486,
                0.5025169849395752,
                0.4561314880847931,
                0.15594467520713806
            ],
            "scale" : [
                0.9999999403953552,
                0.9999998211860657,
                0.9999998807907104
            ],
            "translation" : [
                0.16517220437526703,
                0.08299998939037323,
                -0.009059691801667213
            ]
        },
        {
            "name" : "TopClaw.R",
            "rotation" : [
                0.22047914564609528,
                0.0018316393252462149,
                -0.2086751013994217,
                0.9528065323829651
            ],
            "scale" : [
                0.9999999403953552,
                1,
                0.9999999403953552
            ],
            "translation" : [
                -1.30385160446167e-08,
                0.08345460891723633,
                1.5832483768463135e-08
            ]
        },
        {
            "name" : "BottomClaw.R",
            "rotation" : [
                -0.13157570362091064,
                0.01267320103943348,
                0.05201976001262665,
                0.9898591637611389
            ],
            "scale" : [
                0.9999998807907104,
                0.9999999403953552,
                1
            ],
            "translation" : [
                -1.30385160446167e-08,
                0.08345460891723633,
                1.5832483768463135e-08
            ]
        },
        {
            "children" : [
                13,
                14
            ],
            "name" : "LowerArm.R",
            "rotation" : [
                0.5541695356369019,
                -0.15885305404663086,
                -0.23657028377056122,
                0.782110333442688
            ],
            "translation" : [
                9.778887033462524e-09,
                0.18592488765716553,
                0
            ]
        },
        {
            "children" : [
                15
            ],
            "name" : "UpperArm.R",
            "rotation" : [
                -0.3112308979034424,
                0.5435318350791931,
                0.621170163154602,
                0.47101619839668274
            ],
            "scale" : [
                0.9999998807907104,
                1,
                0.9999998807907104
            ],
            "translation" : [
                -0.19870343804359436,
                0.3017355501651764,
                -0.00035137482336722314
            ]
        },
        {
            "name" : "FrontLeg3.R",
            "rotation" : [
                -0.1680355817079544,
                -0.001876153750345111,
                0.828024685382843,
                0.5349166989326477
            ],
            "scale" : [
                0.9999998807907104,
                1,
                0.9999999403953552
            ],
            "translation" : [
                -1.30385160446167e-08,
                0.1566000133752823,
                -7.450580596923828e-09
            ]
        },
        {
            "children" : [
                17
            ],
            "name" : "FrontKeg2.R",
            "rotation" : [
                0.15224111080169678,
                0.002259744331240654,
                -0.6718611717224121,
                0.7248586416244507
            ],
            "scale" : [
                1,
                0.9999999403953552,
                0.9999998807907104
            ],
            "translation" : [
                -5.587935447692871e-09,
                0.09627893567085266,
                8.381903171539307e-09
            ]
        },
        {
            "children" : [
                18
            ],
            "name" : "FrontLeg1.R",
            "rotation" : [
                -0.3527929484844208,
                0.6707034111022949,
                0.620361328125,
                0.20210406184196472
            ],
            "scale" : [
                0.9999999403953552,
                1.0000001192092896,
                0.9999999403953552
            ],
            "translation" : [
                -0.2206430733203888,
                0.21649840474128723,
                -0.010596646927297115
            ]
        },
        {
            "name" : "MidLeg3.R",
            "rotation" : [
                -0.4063868224620819,
                -0.0036495435051620007,
                0.736869215965271,
                0.5402409434318542
            ],
            "scale" : [
                0.9999999403953552,
                0.9999999403953552,
                0.9999999403953552
            ],
            "translation" : [
                -1.4901161193847656e-08,
                0.15863166749477386,
                5.587935447692871e-09
            ]
        },
        {
            "children" : [
                20
            ],
            "name" : "MidLeg2.R",
            "rotation" : [
                0.34888702630996704,
                0.003037263872101903,
                -0.5879483222961426,
                0.7297845482826233
            ],
            "scale" : [
                1,
                0.9999999403953552,
                0.9999999403953552
            ],
            "translation" : [
                1.30385160446167e-08,
                0.09409017860889435,
                1.3969838619232178e-08
            ]
        },
        {
            "children" : [
                21
            ],
            "name" : "MidLeg1.R",
            "rotation" : [
                -0.5403701066970825,
                0.6215304732322693,
                0.5670979619026184,
                0.010002276860177517
            ],
            "scale" : [
                1,
                1.0000003576278687,
                1
            ],
            "translation" : [
                -0.2124614119529724,
                0.14641648530960083,
                -0.009777224622666836
            ]
        },
        {
            "name" : "BackLeg3.R",
            "rotation" : [
                -0.5858532786369324,
                -0.013364916667342186,
                0.6072752475738525,
                0.5364830493927002
            ],
            "scale" : [
                0.9999999403953552,
                1,
                1
            ],
            "translation" : [
                -7.450580596923828e-09,
                0.15458931028842926,
                -8.381903171539307e-09
            ]
        },
        {
            "children" : [
                23
            ],
            "name" : "BackLeg2.R",
            "rotation" : [
                0.4953029155731201,
                -0.004599118605256081,
                -0.47126084566116333,
                0.7297719717025757
            ],
            "scale" : [
                0.9999999403953552,
                0.9999999403953552,
                1
            ],
            "translation" : [
                1.6763806343078613e-08,
                0.09642535448074341,
                -1.862645149230957e-09
            ]
        },
        {
            "children" : [
                24
            ],
            "name" : "BackLeg1.R",
            "rotation" : [
                0.7176768779754639,
                -0.5025068521499634,
                -0.456177681684494,
                0.15597732365131378
            ],
            "scale" : [
                0.9999999403953552,
                0.9999998211860657,
                0.9999998807907104
            ],
            "translation" : [
                -0.16517336666584015,
                0.08300001919269562,
                -0.009038317948579788
            ]
        },
        {
            "children" : [
                3,
                6,
                9,
                12,
                16,
                19,
                22,
                25
            ],
            "name" : "Root",
            "rotation" : [
                0.7112343907356262,
                -2.2778842321713455e-05,
                -2.304735426150728e-05,
                0.7029549479484558
            ],
            "scale" : [
                1,
                1,
                1.00163733959198
            ],
            "translation" : [
                3.3402984822572535e-09,
                0.02347657084465027,
                -0.2932879328727722
            ]
        },
        {
            "mesh" : 0,
            "name" : "Crab",
            "skin" : 0
        },
        {
            "children" : [
                27,
                26
            ],
            "name" : "Armature"
        }
    ],
    "meshes" : [
        {
            "name" : "Crab",
            "primitives" : [
                {
                    "attributes" : {
                        "POSITION" : 0,
                        "NORMAL" : 1,
                        "TEXCOORD_0" : 2,
                        "JOINTS_0" : 3,
                        "WEIGHTS_0" : 4
                    },
                    "indices" : 5
                }
            ]
        }
    ],
    "skins" : [
        {
            "inverseBindMatrices" : 6,
            "joints" : [
                26,
                3,
                2,
                0,
                1,
                6,
                5,
                4,
                9,
                8,
                7,
                12,
                11,
                10,
                16,
                15,
                13,
                14,
                19,
                18,
                17,
                22,
                21,
                20,
                25,
                24,
                23
            ],
            "name" : "Armature"
        }
    ],
    "accessors" : [
        {
            "bufferView" : 0,
            "componentType" : 5126,
            "count" : 332,
            "max" : [
                0.5262654423713684,
                0.130917489528656,
                0.33466821908950806
            ],
            "min" : [
                -0.5262654423713684,
                -0.18509122729301453,
                -0.42215171456336975
            ],
            "type" : "VEC3"
        },
        {
            "bufferView" : 1,
            "componentType" : 5126,
            "count" : 332,
            "type" : "VEC3"
        },
        {
            "bufferView" : 2,
            "componentType" : 5126,
            "count" : 332,
            "type" : "VEC2"
        },
        {
            "bufferView" : 3,
            "componentType" : 5123,
            "count" : 332,
            "type" : "VEC4"
        },
        {
            "bufferView" : 4,
            "componentType" : 5126,
            "count" : 332,
            "type" : "VEC4"
        },
        {
            "bufferView" : 5,
            "componentType" : 5123,
            "count" : 1260,
            "type" : "SCALAR"
        },
        {
            "bufferView" : 6,
            "componentType" : 5126,
            "count" : 27,
            "type" : "MAT4"
        }
    ],
    "bufferViews" : [
        {
            "buffer" : 0,
            "byteLength" : 3984,
            "byteOffset" : 0
        },
        {
            "buffer" : 0,
            "byteLength" : 3984,
            "byteOffset" : 3984
        },
        {
            "buffer" : 0,
            "byteLength" : 2656,
            "byteOffset" : 7968
        },
        {
            "buffer" : 0,
            "byteLength" : 2656,
            "byteOffset" : 10624
        },
        {
            "buffer" : 0,
            "byteLength" : 5312,
            "byteOffset" : 13280
        },
        {
            "buffer" : 0,
            "byteLength" : 2520,
            "byteOffset" : 18592
        },
        {
            "buffer" : 0,
            "byteLength" : 1728,
            "byteOffset" : 21112
        }
    ],
    "buffers" : [
        {
            "byteLength" : 22840,
            "uri" : "crab_skin.bin"
        }
    ]
}
