{
    "asset" : {
        "generator" : "Khronos glTF Blender I/O v1.2.75",
        "version" : "2.0"
    },
    "scene" : 0,
    "scenes" : [
        {
            "name" : "Scene",
            "nodes" : [
                0
            ]
        }
    ],
    "nodes" : [
        {
            "mesh" : 0,
            "name" : "SnailShell",
            "translation" : [
                1,
                0,
                0
            ]
        }
    ],
    "meshes" : [
        {
            "name" : "SnailShell",
            "primitives" : [
                {
                    "attributes" : {
                        "POSITION" : 0,
                        "NORMAL" : 1,
                        "TEXCOORD_0" : 2
                    },
                    "indices" : 3
                }
            ]
        }
    ],
    "accessors" : [
        {
            "bufferView" : 0,
            "componentType" : 5126,
            "count" : 123,
            "max" : [
                0.334634393453598,
                0.15001757442951202,
                0.39525556564331055
            ],
            "min" : [
                -0.24289844930171967,
                -0.05762283876538277,
                -0.26361149549484253
            ],
            "type" : "VEC3"
        },
        {
            "bufferView" : 1,
            "componentType" : 5126,
            "count" : 123,
            "type" : "VEC3"
        },
        {
            "bufferView" : 2,
            "componentType" : 5126,
            "count" : 123,
            "type" : "VEC2"
        },
        {
            "bufferView" : 3,
            "componentType" : 5123,
            "count" : 594,
            "type" : "SCALAR"
        }
    ],
    "bufferViews" : [
        {
            "buffer" : 0,
            "byteLength" : 1476,
            "byteOffset" : 0
        },
        {
            "buffer" : 0,
            "byteLength" : 1476,
            "byteOffset" : 1476
        },
        {
            "buffer" : 0,
            "byteLength" : 984,
            "byteOffset" : 2952
        },
        {
            "buffer" : 0,
            "byteLength" : 1188,
            "byteOffset" : 3936
        }
    ],
    "buffers" : [
        {
            "byteLength" : 5124,
            "uri" : "snail_shell_model.bin"
        }
    ]
}
