{
    "asset" : {
        "generator" : "Khronos glTF Blender I/O v1.2.75",
        "version" : "2.0"
    },
    "scene" : 0,
    "scenes" : [
        {
            "name" : "Scene",
            "nodes" : [
                3
            ]
        }
    ],
    "nodes" : [
        {
            "name" : "Arm",
            "rotation" : [
                0.7071068286895752,
                -1.9928525318846368e-07,
                -1.997068608261543e-07,
                0.7071068286895752
            ],
            "translation" : [
                0,
                0.19961677491664886,
                0
            ]
        },
        {
            "children" : [
                0
            ],
            "name" : "Root"
        },
        {
            "mesh" : 0,
            "name" : "WaterGun",
            "skin" : 0
        },
        {
            "children" : [
                2,
                1
            ],
            "name" : "Armature"
        }
    ],
    "materials" : [
        {
            "doubleSided" : true,
            "emissiveFactor" : [
                0,
                0,
                0
            ],
            "name" : "base",
            "pbrMetallicRoughness" : {
                "baseColorFactor" : [
                    0.800000011920929,
                    0.800000011920929,
                    0.800000011920929,
                    1
                ],
                "metallicFactor" : 0,
                "roughnessFactor" : 0.4000000059604645
            }
        },
        {
            "doubleSided" : true,
            "emissiveFactor" : [
                0,
                0,
                0
            ],
            "name" : "pipe",
            "pbrMetallicRoughness" : {
                "baseColorFactor" : [
                    0.800000011920929,
                    0.800000011920929,
                    0.800000011920929,
                    1
                ],
                "metallicFactor" : 0,
                "roughnessFactor" : 0.5
            }
        }
    ],
    "meshes" : [
        {
            "name" : "WaterGun",
            "primitives" : [
                {
                    "attributes" : {
                        "POSITION" : 0,
                        "NORMAL" : 1,
                        "TEXCOORD_0" : 2,
                        "JOINTS_0" : 3,
                        "WEIGHTS_0" : 4
                    },
                    "indices" : 5,
                    "material" : 0
                },
                {
                    "attributes" : {
                        "POSITION" : 6,
                        "NORMAL" : 7,
                        "TEXCOORD_0" : 8,
                        "JOINTS_0" : 9,
                        "WEIGHTS_0" : 10
                    },
                    "indices" : 11,
                    "material" : 1
                }
            ]
        }
    ],
    "skins" : [
        {
            "inverseBindMatrices" : 12,
            "joints" : [
                1,
                0
            ],
            "name" : "Armature"
        }
    ],
    "accessors" : [
        {
            "bufferView" : 0,
            "componentType" : 5126,
            "count" : 202,
            "max" : [
                0.143705815076828,
                0.33570754528045654,
                0.36294546723365784
            ],
            "min" : [
                -0.143705815076828,
                -0.004516741260886192,
                -0.25618988275527954
            ],
            "type" : "VEC3"
        },
        {
            "bufferView" : 1,
            "componentType" : 5126,
            "count" : 202,
            "type" : "VEC3"
        },
        {
            "bufferView" : 2,
            "componentType" : 5126,
            "count" : 202,
            "type" : "VEC2"
        },
        {
            "bufferView" : 3,
            "componentType" : 5123,
            "count" : 202,
            "type" : "VEC4"
        },
        {
            "bufferView" : 4,
            "componentType" : 5126,
            "count" : 202,
            "type" : "VEC4"
        },
        {
            "bufferView" : 5,
            "componentType" : 5123,
            "count" : 660,
            "type" : "SCALAR"
        },
        {
            "bufferView" : 6,
            "componentType" : 5126,
            "count" : 53,
            "max" : [
                0.10509886592626572,
                0.36748212575912476,
                0.1671295464038849
            ],
            "min" : [
                0.034481231123209,
                0.2758093476295471,
                -0.14384864270687103
            ],
            "type" : "VEC3"
        },
        {
            "bufferView" : 7,
            "componentType" : 5126,
            "count" : 53,
            "type" : "VEC3"
        },
        {
            "bufferView" : 8,
            "componentType" : 5126,
            "count" : 53,
            "type" : "VEC2"
        },
        {
            "bufferView" : 9,
            "componentType" : 5123,
            "count" : 53,
            "type" : "VEC4"
        },
        {
            "bufferView" : 10,
            "componentType" : 5126,
            "count" : 53,
            "type" : "VEC4"
        },
        {
            "bufferView" : 11,
            "componentType" : 5123,
            "count" : 192,
            "type" : "SCALAR"
        },
        {
            "bufferView" : 12,
            "componentType" : 5126,
            "count" : 2,
            "type" : "MAT4"
        }
    ],
    "bufferViews" : [
        {
            "buffer" : 0,
            "byteLength" : 2424,
            "byteOffset" : 0
        },
        {
            "buffer" : 0,
            "byteLength" : 2424,
            "byteOffset" : 2424
        },
        {
            "buffer" : 0,
            "byteLength" : 1616,
            "byteOffset" : 4848
        },
        {
            "buffer" : 0,
            "byteLength" : 1616,
            "byteOffset" : 6464
        },
        {
            "buffer" : 0,
            "byteLength" : 3232,
            "byteOffset" : 8080
        },
        {
            "buffer" : 0,
            "byteLength" : 1320,
            "byteOffset" : 11312
        },
        {
            "buffer" : 0,
            "byteLength" : 636,
            "byteOffset" : 12632
        },
        {
            "buffer" : 0,
            "byteLength" : 636,
            "byteOffset" : 13268
        },
        {
            "buffer" : 0,
            "byteLength" : 424,
            "byteOffset" : 13904
        },
        {
            "buffer" : 0,
            "byteLength" : 424,
            "byteOffset" : 14328
        },
        {
            "buffer" : 0,
            "byteLength" : 848,
            "byteOffset" : 14752
        },
        {
            "buffer" : 0,
            "byteLength" : 384,
            "byteOffset" : 15600
        },
        {
            "buffer" : 0,
            "byteLength" : 128,
            "byteOffset" : 15984
        }
    ],
    "buffers" : [
        {
            "byteLength" : 16112,
            "uri" : "water_gun_skin.bin"
        }
    ]
}
