{
    "asset" : {
        "generator" : "Khronos glTF Blender I/O v1.2.75",
        "version" : "2.0"
    },
    "scene" : 0,
    "scenes" : [
        {
            "name" : "Scene",
            "nodes" : [
                0
            ]
        }
    ],
    "nodes" : [
        {
            "mesh" : 0,
            "name" : "Island"
        }
    ],
    "meshes" : [
        {
            "name" : "Plane",
            "primitives" : [
                {
                    "attributes" : {
                        "POSITION" : 0,
                        "NORMAL" : 1,
                        "TEXCOORD_0" : 2
                    },
                    "indices" : 3
                }
            ]
        }
    ],
    "accessors" : [
        {
            "bufferView" : 0,
            "componentType" : 5126,
            "count" : 289,
            "max" : [
                8.185271263122559,
                2.3568928241729736,
                8.036056518554688
            ],
            "min" : [
                -8.049243927001953,
                0,
                -8.013004302978516
            ],
            "type" : "VEC3"
        },
        {
            "bufferView" : 1,
            "componentType" : 5126,
            "count" : 289,
            "type" : "VEC3"
        },
        {
            "bufferView" : 2,
            "componentType" : 5126,
            "count" : 289,
            "type" : "VEC2"
        },
        {
            "bufferView" : 3,
            "componentType" : 5123,
            "count" : 1536,
            "type" : "SCALAR"
        }
    ],
    "bufferViews" : [
        {
            "buffer" : 0,
            "byteLength" : 3468,
            "byteOffset" : 0
        },
        {
            "buffer" : 0,
            "byteLength" : 3468,
            "byteOffset" : 3468
        },
        {
            "buffer" : 0,
            "byteLength" : 2312,
            "byteOffset" : 6936
        },
        {
            "buffer" : 0,
            "byteLength" : 3072,
            "byteOffset" : 9248
        }
    ],
    "buffers" : [
        {
            "byteLength" : 12320,
            "uri" : "island_mesh.bin"
        }
    ]
}
