{
    "asset" : {
        "generator" : "Khronos glTF Blender I/O v1.2.75",
        "version" : "2.0"
    },
    "scene" : 0,
    "scenes" : [
        {
            "name" : "Scene",
            "nodes" : [
                0,
                1
            ]
        }
    ],
    "nodes" : [
        {
            "mesh" : 0,
            "name" : "Bucket-col"
        },
        {
            "mesh" : 1,
            "name" : "Handle-col",
            "translation" : [
                0,
                0.7709209322929382,
                0
            ]
        }
    ],
    "meshes" : [
        {
            "name" : "Bucket",
            "primitives" : [
                {
                    "attributes" : {
                        "POSITION" : 0,
                        "NORMAL" : 1,
                        "TEXCOORD_0" : 2
                    },
                    "indices" : 3
                }
            ]
        },
        {
            "name" : "Handle",
            "primitives" : [
                {
                    "attributes" : {
                        "POSITION" : 4,
                        "NORMAL" : 5,
                        "TEXCOORD_0" : 6
                    },
                    "indices" : 7
                }
            ]
        }
    ],
    "accessors" : [
        {
            "bufferView" : 0,
            "componentType" : 5126,
            "count" : 86,
            "max" : [
                0.9510565400123596,
                1,
                1
            ],
            "min" : [
                -0.9510564804077148,
                -1,
                -1
            ],
            "type" : "VEC3"
        },
        {
            "bufferView" : 1,
            "componentType" : 5126,
            "count" : 86,
            "type" : "VEC3"
        },
        {
            "bufferView" : 2,
            "componentType" : 5126,
            "count" : 86,
            "type" : "VEC2"
        },
        {
            "bufferView" : 3,
            "componentType" : 5123,
            "count" : 228,
            "type" : "SCALAR"
        },
        {
            "bufferView" : 4,
            "componentType" : 5126,
            "count" : 114,
            "max" : [
                1.0995603799819946,
                1.4110777378082275,
                0.1239810585975647
            ],
            "min" : [
                -1.0995603799819946,
                -0.13011398911476135,
                -0.12398079037666321
            ],
            "type" : "VEC3"
        },
        {
            "bufferView" : 5,
            "componentType" : 5126,
            "count" : 114,
            "type" : "VEC3"
        },
        {
            "bufferView" : 6,
            "componentType" : 5126,
            "count" : 114,
            "type" : "VEC2"
        },
        {
            "bufferView" : 7,
            "componentType" : 5123,
            "count" : 480,
            "type" : "SCALAR"
        }
    ],
    "bufferViews" : [
        {
            "buffer" : 0,
            "byteLength" : 1032,
            "byteOffset" : 0
        },
        {
            "buffer" : 0,
            "byteLength" : 1032,
            "byteOffset" : 1032
        },
        {
            "buffer" : 0,
            "byteLength" : 688,
            "byteOffset" : 2064
        },
        {
            "buffer" : 0,
            "byteLength" : 456,
            "byteOffset" : 2752
        },
        {
            "buffer" : 0,
            "byteLength" : 1368,
            "byteOffset" : 3208
        },
        {
            "buffer" : 0,
            "byteLength" : 1368,
            "byteOffset" : 4576
        },
        {
            "buffer" : 0,
            "byteLength" : 912,
            "byteOffset" : 5944
        },
        {
            "buffer" : 0,
            "byteLength" : 960,
            "byteOffset" : 6856
        }
    ],
    "buffers" : [
        {
            "byteLength" : 7816,
            "uri" : "bucket_model.bin"
        }
    ]
}
