{
    "asset" : {
        "generator" : "Khronos glTF Blender I/O v1.2.75",
        "version" : "2.0"
    },
    "scene" : 0,
    "scenes" : [
        {
            "name" : "Scene",
            "nodes" : [
                0,
                1
            ]
        }
    ],
    "nodes" : [
        {
            "mesh" : 0,
            "name" : "Target",
            "translation" : [
                0,
                0.5,
                0
            ]
        },
        {
            "mesh" : 1,
            "name" : "Pole"
        }
    ],
    "meshes" : [
        {
            "name" : "Target",
            "primitives" : [
                {
                    "attributes" : {
                        "POSITION" : 0,
                        "NORMAL" : 1,
                        "TEXCOORD_0" : 2
                    },
                    "indices" : 3
                }
            ]
        },
        {
            "name" : "Pole",
            "primitives" : [
                {
                    "attributes" : {
                        "POSITION" : 4,
                        "NORMAL" : 5,
                        "TEXCOORD_0" : 6
                    },
                    "indices" : 7
                }
            ]
        }
    ],
    "accessors" : [
        {
            "bufferView" : 0,
            "componentType" : 5126,
            "count" : 84,
            "max" : [
                0.25889018177986145,
                0.25889018177986145,
                0.08479449898004532
            ],
            "min" : [
                -0.25889018177986145,
                -0.25889018177986145,
                -0.08479449898004532
            ],
            "type" : "VEC3"
        },
        {
            "bufferView" : 1,
            "componentType" : 5126,
            "count" : 84,
            "type" : "VEC3"
        },
        {
            "bufferView" : 2,
            "componentType" : 5126,
            "count" : 84,
            "type" : "VEC2"
        },
        {
            "bufferView" : 3,
            "componentType" : 5123,
            "count" : 288,
            "type" : "SCALAR"
        },
        {
            "bufferView" : 4,
            "componentType" : 5126,
            "count" : 20,
            "max" : [
                0.03681427612900734,
                0.2499999850988388,
                0.04250944033265114
            ],
            "min" : [
                -0.03681427612900734,
                0,
                -0.04250944033265114
            ],
            "type" : "VEC3"
        },
        {
            "bufferView" : 5,
            "componentType" : 5126,
            "count" : 20,
            "type" : "VEC3"
        },
        {
            "bufferView" : 6,
            "componentType" : 5126,
            "count" : 20,
            "type" : "VEC2"
        },
        {
            "bufferView" : 7,
            "componentType" : 5123,
            "count" : 48,
            "type" : "SCALAR"
        }
    ],
    "bufferViews" : [
        {
            "buffer" : 0,
            "byteLength" : 1008,
            "byteOffset" : 0
        },
        {
            "buffer" : 0,
            "byteLength" : 1008,
            "byteOffset" : 1008
        },
        {
            "buffer" : 0,
            "byteLength" : 672,
            "byteOffset" : 2016
        },
        {
            "buffer" : 0,
            "byteLength" : 576,
            "byteOffset" : 2688
        },
        {
            "buffer" : 0,
            "byteLength" : 240,
            "byteOffset" : 3264
        },
        {
            "buffer" : 0,
            "byteLength" : 240,
            "byteOffset" : 3504
        },
        {
            "buffer" : 0,
            "byteLength" : 160,
            "byteOffset" : 3744
        },
        {
            "buffer" : 0,
            "byteLength" : 96,
            "byteOffset" : 3904
        }
    ],
    "buffers" : [
        {
            "byteLength" : 4000,
            "uri" : "target_model.bin"
        }
    ]
}
